<?xml version="1.0" encoding="UTF-8"?>
<svg xmlns="http://www.w3.org/2000/svg" version="1.1" viewBox="0 0 800 800">
  <defs>
    <style>
      .cls-1 {
        fill: #fff;
      }
    </style>
  </defs>
  <!-- Generator: Adobe Illustrator 28.6.0, SVG Export Plug-In . SVG Version: 1.2.0 Build 709)  -->
  <g>
    <g id="Capa_1">
      <path class="cls-1" d="M633.3,733.3c-36.8,0-66.7-29.9-66.7-66.7s29.9-66.7,66.7-66.7,66.7,29.9,66.7,66.7-29.9,66.7-66.7,66.7ZM633.3,666.6h0s0,0,0,0ZM266.7,733.3c-36.8,0-66.7-29.9-66.7-66.7s29.9-66.7,66.7-66.7,66.7,29.9,66.7,66.7-29.9,66.7-66.7,66.7ZM266.7,666.6h0s0,0,0,0ZM666.7,566.7h-400c-16.5,0-30.4-12-32.9-28.3l-19.9-129.2c-.8-2.6-1.2-5.4-1.3-8.3l-34.6-225c-.8-2.6-1.2-5.4-1.3-8.3l-5.3-34.2h-71.4c-18.4,0-33.3-14.9-33.3-33.3s14.9-33.3,33.3-33.3h100c16.5,0,30.4,12,32.9,28.3l5.9,38.4h461.1c10.5,0,20.3,4.9,26.6,13.3s8.3,19.2,5.4,29.2l-66.7,233.3c-4.1,14.3-17.2,24.2-32.1,24.2h-348.3l10.3,66.7h371.4c18.4,0,33.3,14.9,33.3,33.3s-14.9,33.3-33.3,33.3ZM274.8,366.7h333.4l47.6-166.7H249.1l25.6,166.7Z"/>
    </g>
  </g>
</svg>